<svg width="99" height="59" viewBox="0 0 99 59" fill="none" xmlns="http://www.w3.org/2000/svg">
<g clip-path="url(#clip0_1216_4646)">
<mask id="mask0_1216_4646" style="mask-type:luminance" maskUnits="userSpaceOnUse" x="0" y="0" width="99" height="59">
<path d="M99 0H0V59H99V0Z" fill="white"/>
</mask>
<g mask="url(#mask0_1216_4646)">
<path d="M38.6646 37.2407C34.7715 37.2407 31.7285 39.9534 31.7285 44.5643C31.7285 49.1753 34.7585 51.8945 38.6646 51.8945C41.3508 51.8945 43.2454 50.6632 44.0694 49.015V52.7089C44.0694 55.9155 41.9477 57.6855 38.9176 57.6855C36.4001 57.6855 34.2784 56.3452 33.8502 54.1582L32.2411 54.216C32.8899 56.9864 35.1803 59.0002 38.9761 59.0002C42.908 59.0002 45.6526 56.653 45.6526 52.5871V37.4907H44.1213V40.2292C43.3037 38.5232 41.3832 37.2407 38.6646 37.2407ZM38.8073 38.6388C41.779 38.6388 44.0435 40.4023 44.0435 44.0898V45.071C44.0435 48.7328 41.779 50.5221 38.8073 50.5221C35.7188 50.5221 33.3181 48.425 33.3181 44.5964C33.3181 40.7678 35.7188 38.6388 38.8073 38.6388Z" fill="white"/>
<path d="M54.5546 37.292C52.1214 37.292 50.6615 38.5745 50.2009 39.8123V37.4907H48.6631V51.6444H50.2463V43.0316C50.2272 42.4694 50.3254 41.9091 50.5352 41.3861C50.7449 40.8631 51.0616 40.3884 51.4653 39.9919C51.869 39.5952 52.3511 39.2851 52.8816 39.081C53.412 38.8769 53.9794 38.7831 54.5481 38.8055L54.5546 37.292Z" fill="white"/>
<path d="M61.4774 37.2407C57.4287 37.2407 54.2559 40.0367 54.2559 44.5643C54.2559 49.092 57.4287 51.8945 61.4774 51.8945C65.5261 51.8945 68.7184 49.0984 68.7184 44.5643C68.7184 40.0303 65.5327 37.2407 61.4774 37.2407ZM61.4774 38.6388C64.6178 38.6388 67.1028 40.8192 67.1028 44.5643C67.1028 48.3096 64.6178 50.5221 61.4774 50.5221C58.337 50.5221 55.8454 48.316 55.8454 44.5643C55.8454 40.8127 58.3046 38.6388 61.4774 38.6388Z" fill="white"/>
<path d="M81.9617 51.6443V37.4907H80.3786V45.9943C80.3786 48.3159 78.8213 50.413 76.187 50.413C73.702 50.413 72.2291 48.6814 72.2291 46.0778V37.4907H70.6719V46.2702C70.6719 49.6049 72.7092 51.8943 75.908 51.8943C76.8445 51.9377 77.7734 51.7095 78.5804 51.2377C79.3873 50.7661 80.0372 50.0714 80.4499 49.2393V51.6443H81.9617Z" fill="white"/>
<path d="M92.0637 37.2407C89.3451 37.2407 87.4246 38.5232 86.5745 40.2292V37.4907H85.0757V58.7757H86.6589V49.015C87.4764 50.6632 89.3776 51.8945 92.0637 51.8945C95.9568 51.8945 98.9999 49.1817 98.9999 44.5643C98.9999 39.947 95.9438 37.2407 92.0637 37.2407ZM91.921 38.6388C94.977 38.6388 97.4102 40.7102 97.4102 44.5964C97.4102 48.4828 94.977 50.5221 91.921 50.5221C88.8649 50.5221 86.6589 48.7328 86.6589 45.071V44.0898C86.6589 40.4023 88.9233 38.6388 91.921 38.6388Z" fill="white"/>
<path d="M26.0965 22.997L19.6082 7.77246H14.4888L23.6958 28.5699L19.2513 39.1195H24.1371L37.2565 7.77246H32.2281L26.0965 22.997Z" fill="white"/>
<path d="M64.7281 7.33014C63.2369 7.28942 61.7606 7.63206 60.4435 8.32452C59.1264 9.017 58.0138 10.0356 57.2146 11.2806C55.9169 8.81797 53.4383 7.33014 49.8827 7.33014C48.6234 7.28129 47.3709 7.53531 46.2328 8.07037C45.0948 8.60544 44.105 9.40555 43.3488 10.402V7.76622H38.6318V29.7053H43.3878V17.5204C43.3878 13.4803 45.6977 11.4153 48.8121 11.4153C51.9265 11.4153 53.8536 13.429 53.8536 16.6354V29.7117H58.6485V17.3153C58.6485 13.4097 60.9649 11.3896 63.943 11.3896C67.2651 11.3896 69.0949 13.5444 69.0949 16.8343V29.6604H73.9417V16.5457C73.9677 10.9022 70.7753 7.33014 64.7281 7.33014Z" fill="white"/>
<path d="M8.58415 0L3.77624 2.56522V7.74696H0V11.9603H3.77624V20.7526C3.77624 27.5953 5.8201 29.7308 12.581 29.7308H13.2947V25.3058C9.20704 25.3058 8.57767 24.6646 8.57767 20.7397V11.9796H13.2947V7.76619H8.58415V0Z" fill="white"/>
<path d="M98.7858 18.5975C98.7858 12.0626 93.848 7.32337 87.3143 7.32337C85.7874 7.30759 84.2731 7.5951 82.8609 8.16883C81.4487 8.74257 80.1676 9.59083 79.0934 10.6633C78.0191 11.7357 77.1739 13.0106 76.6078 14.4121C76.0415 15.8136 75.7659 17.3132 75.7973 18.822C75.7973 25.049 80.2418 30.141 87.2688 30.141C92.9591 30.141 96.7419 27.1589 98.4289 22.3299H93.316C92.4725 24.6129 90.3833 26.0622 87.3143 26.0622C85.62 26.1408 83.9584 25.5826 82.6634 24.5001C81.3683 23.4176 80.5357 21.8908 80.3326 20.2264H98.7858V18.5975ZM80.6507 16.276C81.0982 14.871 81.9933 13.6468 83.2023 12.7858C84.4113 11.9248 85.8696 11.4731 87.3597 11.4983C90.6947 11.4983 93.1408 13.2106 93.9388 16.276H80.6507Z" fill="white"/>
</g>
</g>
<defs>
<clipPath id="clip0_1216_4646">
<rect width="99" height="59" fill="white"/>
</clipPath>
</defs>
</svg>
