<?xml version="1.0" encoding="UTF-8"?><svg xmlns="http://www.w3.org/2000/svg" viewBox="0 0 89.87 25.73"><defs><style>.d{fill:none;}</style></defs><g id="a"/><g id="b"><g id="c"><g><polygon points="81.5 25.73 87.83 25.73 77.9 15.09 74.7 18.3 81.5 25.73"/><g><path d="M0,25.73V0H15.91V4.3H4.87v6.84H15.06v4.29H4.87v10.31H0Z"/><path d="M24.26,25.73h-4.87V0h4.87V25.73Z"/><path d="M34.03,6.23V25.73h-4.75V0h6.49l9.77,19.54V0h4.75V25.73h-6.49L34.03,6.23Z"/></g><polyline points="68.8 11.76 57.98 0 63.94 0 71.96 8.59"/><polygon points="89.83 0 64.24 25.73 58.01 25.73 61.2 22.53 73.48 10.18 73.48 10.18 80.26 3.36 77.13 3.36 73.79 0 89.83 0"/><rect class="d" x="58.55" width="31.32" height="25.73"/></g></g></g></svg>