<?xml version="1.0" encoding="utf-8"?>
<!-- Generator: Adobe Illustrator 26.2.1, SVG Export Plug-In . SVG Version: 6.00 Build 0)  -->
<svg version="1.1" id="Layer_1" xmlns="http://www.w3.org/2000/svg" xmlns:xlink="http://www.w3.org/1999/xlink" x="0px" y="0px"
	 viewBox="0 0 1990 806" style="enable-background:new 0 0 1990 806;" xml:space="preserve">
<style type="text/css">
	.st0{fill:url(#SVGID_1_);}
	.st1{fill:url(#SVGID_00000135664492425263797150000002889185012427638934_);filter:url(#Adobe_OpacityMaskFilter);}
	.st2{mask:url(#mask0_4138_54509_00000173880672720599751680000018121513987235073675_);}
	.st3{fill:url(#SVGID_00000100378427298596423690000003827861574021100937_);fill-opacity:0.4;}
	.st4{fill:url(#SVGID_00000030453620006347847150000004314821034149517966_);fill-opacity:0.6;}
	.st5{fill:url(#SVGID_00000125592950066406188750000005777844417198495114_);fill-opacity:0.7;}
	.st6{fill:url(#SVGID_00000027569498251060365750000009344858561939482505_);}
	.st7{fill:url(#SVGID_00000088837021551820634900000009417329032477852544_);}
	.st8{fill:none;stroke:#5371E7;stroke-opacity:0.3;}
	.st9{fill:url(#SVGID_00000065782594851222790190000007999480591518282644_);}
	.st10{fill:none;stroke:#FFFFFF;stroke-opacity:0.4;}
	.st11{fill:#A79D99;}
</style>
<linearGradient id="SVGID_1_" gradientUnits="userSpaceOnUse" x1="-33.9916" y1="679.5011" x2="2023.9916" y2="126.4989">
	<stop  offset="0" style="stop-color:#212625"/>
	<stop  offset="1" style="stop-color:#181A1A"/>
</linearGradient>
<path class="st0" d="M0,0h1990v806H0V0z"/>
<defs>
	<filter id="Adobe_OpacityMaskFilter" filterUnits="userSpaceOnUse" x="-240" y="-212.5" width="2310.8" height="1212.6">
		<feColorMatrix  type="matrix" values="1 0 0 0 0  0 1 0 0 0  0 0 1 0 0  0 0 0 1 0"/>
	</filter>
</defs>
<mask maskUnits="userSpaceOnUse" x="-240" y="-212.5" width="2310.8" height="1212.6" id="mask0_4138_54509_00000173880672720599751680000018121513987235073675_">
	
		<linearGradient id="SVGID_00000170958683242664250820000017890630139448518538_" gradientUnits="userSpaceOnUse" x1="32.9226" y1="144.4795" x2="1959.0826" y2="662.0594" gradientTransform="matrix(1 0 0 -1 0 806)">
		<stop  offset="0" style="stop-color:#1B45B4"/>
		<stop  offset="1" style="stop-color:#1C2792"/>
	</linearGradient>
	<path style="fill:url(#SVGID_00000170958683242664250820000017890630139448518538_);filter:url(#Adobe_OpacityMaskFilter);" d="
		M0,0h1990v806H0V0z"/>
</mask>
<g class="st2">
	<g>
		
			<linearGradient id="SVGID_00000098185129194541300100000002416736183566601880_" gradientUnits="userSpaceOnUse" x1="667.0175" y1="-342.2247" x2="1725.9454" y2="277.8133" gradientTransform="matrix(1 0 0 -1 0 806)">
			<stop  offset="0" style="stop-color:#998C88"/>
			<stop  offset="1" style="stop-color:#3E4144"/>
		</linearGradient>
		<path style="fill:url(#SVGID_00000098185129194541300100000002416736183566601880_);fill-opacity:0.4;" d="M1058.9,817.4
			c456.5-174.6,307.2,149.5,585.6,180.7c278.4,31.1,491.6-305.3-126.6-559.3C899.7,184.7,278.7,1115.7,1058.9,817.4z"/>
	</g>
	<g>
		
			<linearGradient id="SVGID_00000102506181910725669240000016399142605726358176_" gradientUnits="userSpaceOnUse" x1="953.8882" y1="319.031" x2="1930.2443" y2="889.8291" gradientTransform="matrix(1 0 0 -1 0 806)">
			<stop  offset="0" style="stop-color:#9C8E8A"/>
			<stop  offset="1" style="stop-color:#6C615D"/>
		</linearGradient>
		<path style="fill:url(#SVGID_00000102506181910725669240000016399142605726358176_);fill-opacity:0.6;" d="M1150.9,172.5
			c141.4,161.9,297.1-144.8,589.4,137.1c292.3,281.9,553.7-281.8,31-466.8C1248.6-342.2,982.8-20,1150.9,172.5z"/>
	</g>
	<g>
		
			<linearGradient id="SVGID_00000134969093111895153260000015604118474304472735_" gradientUnits="userSpaceOnUse" x1="55.6136" y1="973.1527" x2="911.9826" y2="471.6327" gradientTransform="matrix(1 0 0 -1 0 806)">
			<stop  offset="0" style="stop-color:#998C88"/>
			<stop  offset="1" style="stop-color:#3E4144"/>
		</linearGradient>
		<path style="fill:url(#SVGID_00000134969093111895153260000015604118474304472735_);fill-opacity:0.7;" d="M477.4-38.9
			c369.2,141.2,785.4-188.6,862.2,29.7c76.8,218.3-541.4,7.3-1122.7,341.5C-364.5,666.4-153.6-280.1,477.4-38.9z"/>
	</g>
	
		<linearGradient id="SVGID_00000163786690824564794280000011089266107267101066_" gradientUnits="userSpaceOnUse" x1="1400.4076" y1="385.9792" x2="878.2006" y2="563.2111" gradientTransform="matrix(1 0 0 -1 0 806)">
		<stop  offset="0" style="stop-color:#AA9D99;stop-opacity:0.1"/>
		<stop  offset="1" style="stop-color:#A79D9E;stop-opacity:5.000000e-02"/>
	</linearGradient>
	<path style="fill:url(#SVGID_00000163786690824564794280000011089266107267101066_);" d="M829,322.6l622-111.1v127.2l-622,113
		V322.6z"/>
	
		<linearGradient id="SVGID_00000173875690891977572890000005832338443955991695_" gradientUnits="userSpaceOnUse" x1="429.0953" y1="25.9131" x2="180.2413" y2="120.1471" gradientTransform="matrix(1 0 0 -1 0 806)">
		<stop  offset="0" style="stop-color:#A79D99;stop-opacity:0"/>
		<stop  offset="1" style="stop-color:#A79D98;stop-opacity:0.86"/>
	</linearGradient>
	<path style="fill:url(#SVGID_00000173875690891977572890000005832338443955991695_);" d="M155.2,723.3l301.7-42.8l-2.2,61.4
		l-301.7,43.7L155.2,723.3z"/>
	<path class="st8" d="M1316.5,749.5v-93.1l453.6-80.8v91.8L1316.5,749.5z"/>
	
		<linearGradient id="SVGID_00000098204213231896172690000006571945539122933379_" gradientUnits="userSpaceOnUse" x1="275.5962" y1="377.4439" x2="23.7328" y2="462.9319" gradientTransform="matrix(1 0 0 -1 0 806)">
		<stop  offset="0" style="stop-color:#AA9D96;stop-opacity:0.2"/>
		<stop  offset="1" style="stop-color:#AA9D96;stop-opacity:0.2"/>
	</linearGradient>
	<path style="fill:url(#SVGID_00000098204213231896172690000006571945539122933379_);" d="M0,381.6L300,328v61.4L0,443.9L0,381.6z"
		/>
	<path class="st10" d="M-239.5,457V329.8l617-110.2v125.4L-239.5,457z"/>
	<path class="st11" d="M1451,149.1l300-53.7v61.4l-300,54.6V149.1z"/>
</g>
</svg>
