<?xml version="1.0" encoding="UTF-8"?>
<svg xmlns="http://www.w3.org/2000/svg" viewBox="0 0 188.99 26.49">
    <defs>
        <style>
            .d {
            fill: none;
            }
        </style>
    </defs>
    <g id="a" />
    <g id="b">
        <g id="c">
            <g>
                <g>
                    <path d="M19.46,18.58c0,4.29-2.47,7.92-9.73,7.92S0,22.86,0,18.58V7.92C0,3.63,2.47,0,9.73,0s9.73,3.63,9.73,7.92v10.66Zm-14.6-.27c0,2.43,1.24,3.9,4.87,3.9s4.87-1.47,4.87-3.9V8.19c0-2.43-1.24-3.9-4.87-3.9s-4.87,1.47-4.87,3.9v10.12Z" />
                    <path d="M28.46,6.6V26.11h-4.75V.39h6.49l9.77,19.54V.39h4.75V26.11h-6.49L28.46,6.6Z" />
                    <path d="M49.55,.39h15.76V4.67h-10.89v6.22h10.04v4.29h-10.04v6.64h10.89v4.29h-15.76V.39Z" />
                </g>
                <g class="brand">
                    <path d="M116.1,4.67h-7.18V.39h19.23V4.67h-7.18V26.11h-4.87V4.67Z" />
                    <path d="M131.05,.39h15.76V4.67h-10.89v6.22h10.04v4.29h-10.04v6.64h10.89v4.29h-15.76V.39Z" />
                    <path d="M149.9,7.45c0-4.71,2.74-7.45,9.15-7.45,2.39,0,4.87,.31,6.99,.85l-.54,4.21c-2.09-.39-4.52-.66-6.29-.66-3.36,0-4.44,1.16-4.44,3.9v9.89c0,2.74,1.08,3.9,4.44,3.9,1.78,0,4.21-.27,6.29-.66l.54,4.21c-2.12,.54-4.6,.85-6.99,.85-6.41,0-9.15-2.74-9.15-7.45V7.45Z" />
                    <path d="M184.12,26.11V15.25h-9.54v10.85h-4.87V.39h4.87V10.97h9.54V.39h4.87V26.11h-4.87Z" />
                </g>
                <polyline points="83.05 12.14 72.23 .38 78.19 .38 86.21 8.97" />
                <polygon points="95.75 26.11 102.08 26.11 92.15 15.47 88.95 18.68 95.75 26.11" />
                <polygon points="104.09 .38 78.49 26.11 72.26 26.11 75.45 22.91 87.73 10.56 87.73 10.56 94.51 3.73 91.38 3.73 88.04 .38 104.09 .38" />
                <rect class="d" x="72.8" y=".38" width="31.32" height="25.73" />
            </g>
        </g>
    </g>
</svg>
