<?xml version="1.0" encoding="UTF-8"?><svg xmlns="http://www.w3.org/2000/svg" viewBox="0 0 220.77 26.49"><defs><style>.d{fill:none;}</style></defs><g id="a"/><g id="b"><g id="c"><g><g><path d="M19.46,18.58c0,4.29-2.47,7.92-9.73,7.92S0,22.86,0,18.58V7.92C0,3.63,2.47,0,9.73,0s9.73,3.63,9.73,7.92v10.66Zm-14.6-.27c0,2.43,1.24,3.9,4.87,3.9s4.87-1.47,4.87-3.9V8.19c0-2.43-1.24-3.9-4.87-3.9s-4.87,1.47-4.87,3.9v10.12Z"/><path d="M28.46,6.6V26.11h-4.75V.39h6.49l9.77,19.54V.39h4.75V26.11h-6.49L28.46,6.6Z"/><path d="M49.55,.39h15.76V4.67h-10.89v6.22h10.04v4.29h-10.04v6.64h10.89v4.29h-15.76V.39Z"/></g><g><path d="M115.14,18.15c0,2.51,1.08,3.98,4.48,3.98,1.31,0,2.67-.12,3.98-.31v-7.8h4.6v11.32c-2.7,.77-5.91,1.16-8.61,1.16-6.3,0-9.31-2.66-9.31-7.76V7.76c0-5.29,3.09-7.76,9.77-7.76,2.09,0,5.06,.23,7.38,.85l-.54,4.25c-2.36-.5-4.71-.69-7.22-.69-3.4,0-4.52,1.39-4.52,4.02v9.73Z"/><path d="M147.85,26.11l-5.91-8.5h-4.63v8.5h-4.87V.39h10.54c5.99,0,8.19,2.43,8.19,6.95v3.36c0,3.09-1.16,5.25-3.86,6.22l6.37,9.19h-5.83Zm-5.06-21.43h-5.48V13.4h5.48c2.66,0,3.51-.97,3.51-3.13v-2.55c0-2.16-.93-3.05-3.51-3.05Z"/><path d="M174.89,18.58c0,4.29-2.47,7.92-9.73,7.92s-9.73-3.63-9.73-7.92V7.92c0-4.29,2.47-7.92,9.73-7.92s9.73,3.63,9.73,7.92v10.66Zm-14.6-.27c0,2.43,1.24,3.9,4.87,3.9s4.87-1.47,4.87-3.9V8.19c0-2.43-1.24-3.9-4.87-3.9s-4.87,1.47-4.87,3.9v10.12Z"/><path d="M197.95,.39V18.65c0,4.06-2.28,7.84-9.5,7.84s-9.5-3.78-9.5-7.84V.39h4.87V18.27c0,2.51,1.2,3.94,4.63,3.94s4.63-1.43,4.63-3.94V.39h4.87Z"/><path d="M202.58,.39h10.04c5.95,0,8.15,2.43,8.15,6.95v3.51c0,4.48-2.39,6.91-8.38,6.91h-4.94v8.34h-4.87V.39Zm9.77,4.29h-4.9V13.48h4.9c2.74,0,3.55-1,3.55-3.13v-2.63c0-2.12-.89-3.05-3.55-3.05Z"/></g><polyline points="83.05 12.14 72.23 .38 78.19 .38 86.21 8.97"/><polygon points="95.75 26.11 102.08 26.11 92.15 15.47 88.95 18.68 95.75 26.11"/><polygon points="104.09 .38 78.49 26.11 72.26 26.11 75.45 22.91 87.73 10.56 87.73 10.56 94.51 3.73 91.38 3.73 88.04 .38 104.09 .38"/><rect class="d" x="72.8" y=".38" width="31.32" height="25.73"/></g></g></g></svg>