<?xml version="1.0" encoding="UTF-8"?><svg xmlns="http://www.w3.org/2000/svg" viewBox="0 0 101.96 26.49"><defs><style>.d{fill:none;}</style></defs><g id="a"/><g id="b"><g id="c"><g><g><path d="M4.87,18.15c0,2.51,1.08,3.98,4.48,3.98,1.31,0,2.67-.12,3.98-.31v-7.8h4.6v11.32c-2.7,.77-5.91,1.16-8.61,1.16-6.3,0-9.31-2.66-9.31-7.76V7.76C0,2.47,3.09,0,9.77,0c2.09,0,5.06,.23,7.38,.85l-.54,4.25c-2.36-.5-4.71-.69-7.22-.69-3.4,0-4.52,1.39-4.52,4.02v9.73Z"/><path d="M41.05,18.58c0,4.29-2.47,7.92-9.73,7.92s-9.73-3.63-9.73-7.92V7.92c0-4.29,2.47-7.92,9.73-7.92s9.73,3.63,9.73,7.92v10.66Zm-14.6-.27c0,2.43,1.24,3.9,4.87,3.9s4.87-1.47,4.87-3.9V8.19c0-2.43-1.24-3.9-4.87-3.9s-4.87,1.47-4.87,3.9v10.12Z"/><path d="M59.9,.39h5.06l-7.69,25.72h-7.18L42.41,.39h5.06l6.22,21.43L59.9,.39Z"/></g><polyline points="80.89 12.14 70.07 .38 76.03 .38 84.05 8.97"/><polygon points="93.59 26.11 99.92 26.11 89.99 15.47 86.79 18.68 93.59 26.11"/><polygon points="101.92 .38 76.33 26.11 70.1 26.11 73.29 22.91 85.57 10.56 85.57 10.56 92.35 3.73 89.21 3.73 85.88 .38 101.92 .38"/><rect class="d" x="70.64" y=".38" width="31.32" height="25.73"/></g></g></g></svg>