<svg width="167" height="52" viewBox="0 0 167 52" fill="none" xmlns="http://www.w3.org/2000/svg">
<g clip-path="url(#clip0_1216_4660)">
<mask id="mask0_1216_4660" style="mask-type:luminance" maskUnits="userSpaceOnUse" x="0" y="0" width="167" height="52">
<path d="M167 0H0V52H167V0Z" fill="white"/>
</mask>
<g mask="url(#mask0_1216_4660)">
<path d="M57.5154 24.1479C58.636 23.5505 59.9166 23.2497 61.3616 23.2497C63.646 23.2497 65.5929 24.0963 67.211 25.7852L70.5726 22.7039C69.4737 21.4405 68.1152 20.4778 66.5014 19.816C64.8877 19.1542 63.0879 18.8232 61.1064 18.8232C58.7355 18.8232 56.6026 19.3218 54.7076 20.3145C52.8126 21.3072 51.333 22.6911 50.2643 24.453C49.2 26.2193 48.6636 28.2134 48.6636 30.4395C48.6636 32.6656 49.1957 34.6597 50.2643 36.4259C51.3287 38.1922 52.7996 39.5717 54.673 40.5644C56.5463 41.5571 58.6576 42.0557 61.0069 42.0557C62.6422 42.0557 64.269 41.8107 65.8871 41.3165C67.5008 40.8265 68.9242 40.1175 70.1529 39.1978V29.3264H59.3455L61.9327 33.3102H65.3679V36.6623C64.1608 37.3026 62.8023 37.6249 61.2967 37.6249C59.8733 37.6249 58.61 37.3198 57.4981 36.7095C56.3862 36.0993 55.521 35.2484 54.898 34.1568C54.2749 33.0653 53.9591 31.8232 53.9591 30.4351C53.9591 29.047 54.2706 27.7707 54.898 26.6792C55.521 25.5876 56.3949 24.7409 57.5154 24.1436V24.1479Z" fill="white"/>
<path d="M96.7645 20.3273C94.8912 19.3217 92.7799 18.8188 90.4306 18.8188C88.0814 18.8188 85.9658 19.3217 84.0794 20.3273C82.1931 21.3329 80.7178 22.7167 79.6535 24.483C78.5892 26.2493 78.0527 28.2347 78.0527 30.435C78.0527 32.6354 78.5849 34.6251 79.6535 36.3871C80.7178 38.1534 82.1931 39.5372 84.0794 40.5428C85.9658 41.5484 88.0814 42.0512 90.4306 42.0512C92.7799 42.0512 94.8912 41.5484 96.7645 40.5428C98.6379 39.5372 100.113 38.1534 101.19 36.3871C102.268 34.6208 102.804 32.6397 102.804 30.435C102.804 28.2304 102.263 26.245 101.19 24.483C100.113 22.7167 98.6379 21.3329 96.7645 20.3273ZM96.5871 34.161C95.9728 35.2526 95.1291 36.1035 94.0519 36.7137C92.9746 37.324 91.7675 37.6291 90.435 37.6291C89.1024 37.6291 87.891 37.324 86.8181 36.7137C85.7408 36.1035 84.8971 35.2526 84.2828 34.161C83.6684 33.0694 83.3613 31.8274 83.3613 30.4393C83.3613 29.0512 83.6684 27.8093 84.2828 26.7177C84.8971 25.6261 85.7408 24.7752 86.8181 24.165C87.8953 23.5547 89.1024 23.2496 90.435 23.2496C91.7675 23.2496 92.9746 23.5547 94.0519 24.165C95.1291 24.7752 95.9728 25.6261 96.5871 26.7177C97.2015 27.8093 97.5087 29.0512 97.5087 30.4393C97.5087 31.8274 97.2015 33.0694 96.5871 34.161Z" fill="white"/>
<path d="M132.358 19.2056L124.026 33.1682L115.559 19.2056H111.228V41.673H116.139V28.4796L122.762 39.2965H125.125L131.779 28.1917L131.809 41.673H136.724L136.659 19.2056H132.358Z" fill="white"/>
<path d="M161.687 19.2056V31.5953C161.687 33.671 161.254 35.1966 160.394 36.1679C159.533 37.1434 158.282 37.629 156.647 37.629C153.285 37.629 151.607 35.6178 151.607 31.5953V19.2056H146.372V31.7887C146.372 35.0849 147.271 37.6204 149.071 39.3953C150.871 41.1702 153.385 42.0598 156.617 42.0598C159.848 42.0598 162.362 41.1702 164.162 39.3953C165.962 37.6204 166.862 35.0849 166.862 31.7887V19.2056H161.691H161.687Z" fill="white"/>
<path d="M14.1473 17.0096C28.762 11.4529 38.782 22.4932 38.782 22.4932L41.6244 19.154L17.4397 0L14.7227 3.32197L24.3404 10.9845C20.3601 10.6965 16.25 11.3626 12.3648 13.1117C7.38511 15.355 3.58219 19.3904 1.66126 24.4744C-0.264004 29.5583 -0.0779889 35.0807 2.1804 40.0271C6.83998 50.238 18.9972 54.7762 29.2725 50.1478C37.4062 46.482 41.0274 36.9286 37.3369 28.845C35.5501 24.9299 32.3356 21.9431 28.2861 20.4304C24.2365 18.9177 19.8366 19.0638 15.8952 20.8387C12.8624 22.2053 10.5737 24.715 9.50939 27.8694C8.66141 30.3749 8.68304 33.1124 9.57861 35.6007C11.9538 42.2016 19.4602 45.2658 25.7551 42.4294C29.6056 40.6932 31.3189 36.1722 29.571 32.3474C27.8275 28.5312 23.3107 26.8681 19.4515 28.5441C19.4299 28.5527 19.4082 28.5656 19.3866 28.5742C17.6041 29.3993 16.9032 31.2859 17.9978 33.0307C19.4039 32.6955 21.3075 32.2701 21.3638 32.2615C23.2112 31.9478 25.1235 32.8073 25.7075 34.2512C26.4127 35.9917 25.4523 37.9428 23.7044 38.6519C19.9361 40.1775 15.5794 38.48 13.8834 34.7626C13.0181 32.8717 12.9706 30.7531 13.7493 28.8192C14.4589 27.0529 16.6004 25.1147 18.3915 24.44C21.2426 23.3656 24.3663 23.4172 27.2174 24.6076C29.6489 25.6218 31.691 27.4354 32.9716 29.7259C36.3895 35.8284 33.7763 43.4264 27.503 46.2499C19.3866 49.9028 9.79493 46.3187 6.11314 38.2608C4.33066 34.3544 4.18354 29.9967 5.70213 25.9828C7.22071 21.9689 10.1237 18.5481 14.1516 17.0139L14.1473 17.0096Z" fill="white"/>
</g>
</g>
<defs>
<clipPath id="clip0_1216_4660">
<rect width="167" height="52" fill="white"/>
</clipPath>
</defs>
</svg>
