<?xml version="1.0" encoding="UTF-8"?><svg xmlns="http://www.w3.org/2000/svg" viewBox="0 0 232.21 26.49"><defs><style>.d{fill:none;}</style></defs><g id="a"/><g id="b"><g id="c"><g><g><path d="M19.46,18.58c0,4.29-2.47,7.92-9.73,7.92S0,22.86,0,18.58V7.92C0,3.63,2.47,0,9.73,0s9.73,3.63,9.73,7.92v10.66Zm-14.6-.27c0,2.43,1.24,3.9,4.87,3.9s4.87-1.47,4.87-3.9V8.19c0-2.43-1.24-3.9-4.87-3.9s-4.87,1.47-4.87,3.9v10.12Z"/><path d="M28.46,6.6V26.11h-4.75V.39h6.49l9.77,19.54V.39h4.75V26.11h-6.49L28.46,6.6Z"/><path d="M49.55,.39h15.76V4.67h-10.89v6.22h10.04v4.29h-10.04v6.64h10.89v4.29h-15.76V.39Z"/></g><g><path d="M120.43,.39c6.33,0,8.54,3.21,8.54,6.91v11.89c0,3.67-2.2,6.91-8.54,6.91h-9.58V.39h9.58Zm-4.71,21.43h4.21c3.28,0,4.17-1.31,4.17-3.78V8.46c0-2.47-.89-3.79-4.17-3.79h-4.21V21.82Z"/><path d="M138.27,26.11h-4.87V.39h4.87V26.11Z"/><path d="M147.58,18.15c0,2.51,1.08,3.98,4.48,3.98,1.31,0,2.67-.12,3.98-.31v-7.8h4.6v11.32c-2.7,.77-5.91,1.16-8.61,1.16-6.3,0-9.31-2.66-9.31-7.76V7.76c0-5.29,3.09-7.76,9.77-7.76,2.09,0,5.06,.23,7.38,.85l-.54,4.25c-2.36-.5-4.71-.69-7.22-.69-3.4,0-4.52,1.39-4.52,4.02v9.73Z"/><path d="M169.95,26.11h-4.87V.39h4.87V26.11Z"/><path d="M180.22,4.67h-7.18V.39h19.23V4.67h-7.18V26.11h-4.87V4.67Z"/><path d="M207.1,20.78h-9.54l-1.62,5.33h-5.1L198.95,.39h6.8l8.11,25.72h-5.1l-1.66-5.33Zm-8.34-4.21h7.11l-3.51-12.17-3.59,12.17Z"/><path d="M221.62,21.82h10.58v4.29h-15.45V.39h4.87V21.82Z"/></g><polyline points="83.05 12.14 72.23 .38 78.19 .38 86.21 8.97"/><polygon points="95.75 26.11 102.08 26.11 92.15 15.47 88.95 18.68 95.75 26.11"/><polygon points="104.09 .38 78.49 26.11 72.26 26.11 75.45 22.91 87.73 10.56 87.73 10.56 94.51 3.73 91.38 3.73 88.04 .38 104.09 .38"/><rect class="d" x="72.8" y=".38" width="31.32" height="25.73"/></g></g></g></svg>